<?xml version="1.0" standalone="no"?>
<!DOCTYPE svg PUBLIC "-//W3C//DTD SVG 20010904//EN"
 "http://www.w3.org/TR/2001/REC-SVG-20010904/DTD/svg10.dtd">
<svg version="1.0" xmlns="http://www.w3.org/2000/svg"
 width="640.000000pt" height="640.000000pt" viewBox="0 0 640.000000 640.000000"
 preserveAspectRatio="xMidYMid meet">
<metadata>
Created by potrace 1.11, written by Peter Selinger 2001-2013
</metadata>
<g transform="translate(0.000000,640.000000) scale(0.100000,-0.100000)"
fill="#000000" stroke="none">
<path d="M0 3200 l0 -3200 1301 0 c1165 0 1301 2 1295 15 -14 38 -37 138 -41
186 -3 29 -9 56 -14 59 -4 3 -11 12 -14 20 -4 11 -7 10 -12 -7 -13 -40 -32
-25 -48 39 -50 197 -101 464 -136 723 -29 214 -30 202 4 490 9 77 20 298 25
490 6 193 14 377 19 410 5 33 10 81 10 107 1 63 33 145 75 194 32 37 34 45 31
95 -3 30 -7 91 -9 136 -5 75 -26 193 -60 336 l-14 58 42 19 c48 23 36 26 -22
6 -31 -11 -42 -12 -45 -3 -3 9 -7 9 -17 0 -16 -15 -61 4 -136 56 -124 86 -207
197 -244 324 -9 34 -29 95 -44 135 -29 82 -33 153 -12 222 31 103 73 163 123
176 28 8 149 -50 164 -78 17 -32 40 -54 79 -75 22 -12 37 -29 40 -45 3 -14 19
-37 36 -52 31 -25 33 -26 75 -11 24 9 55 13 67 10 49 -12 67 7 88 90 7 31 7
53 -2 93 -2 12 0 22 6 22 19 0 50 35 50 57 0 13 -4 23 -8 23 -15 0 -35 53 -42
106 -5 43 -3 51 9 46 9 -3 12 -1 7 6 -3 6 2 13 13 17 20 6 33 27 36 58 2 16 0
16 -21 2 -29 -19 -44 -19 -44 0 0 8 7 15 15 15 8 0 20 10 26 22 9 17 9 24 -5
33 -13 10 -14 18 -7 38 9 24 6 37 -10 37 -5 0 -6 -7 -3 -15 4 -9 0 -15 -9 -15
-9 0 -19 -9 -22 -21 -7 -19 -7 -20 -21 -2 -7 10 -14 27 -14 38 0 26 28 67 41
60 20 -13 29 7 15 33 -13 24 -12 31 10 70 13 24 22 48 18 53 -3 5 1 20 10 33
8 13 12 27 9 30 -4 4 -8 26 -8 49 -1 23 -5 49 -9 59 -5 11 -1 18 13 23 12 3
21 15 21 25 0 10 5 22 10 25 6 3 10 14 10 23 1 9 19 35 40 57 22 22 40 43 40
48 0 4 18 14 40 23 22 9 40 22 40 29 0 19 34 28 80 20 30 -5 41 -3 45 7 4 11
23 13 78 10 97 -5 213 -1 237 9 3 1 66 3 141 3 96 1 141 5 152 14 12 10 28 11
73 3 62 -12 73 -9 55 13 -10 12 -4 14 41 11 29 -1 84 -8 121 -14 40 -6 75 -7
85 -2 9 4 37 11 61 14 63 8 154 -36 211 -100 104 -117 197 -314 229 -483 7
-36 24 -112 37 -169 25 -106 24 -120 -13 -121 -7 0 -10 -6 -7 -14 6 -15 -47
-33 -66 -21 -13 8 -67 -24 -73 -44 -2 -9 -27 -28 -56 -43 -28 -14 -46 -28 -39
-30 17 -6 -8 -38 -29 -38 -7 0 -16 -7 -19 -15 -4 -8 -12 -15 -19 -15 -18 0
-69 -105 -61 -125 3 -8 12 -15 21 -15 17 0 20 -16 5 -25 -17 -10 -11 -35 8
-35 9 0 29 -6 44 -14 25 -14 26 -13 19 7 -5 12 -18 23 -30 25 -30 5 -26 14 19
40 l39 22 28 -37 c15 -21 32 -40 37 -42 5 -2 16 -11 26 -21 27 -27 56 -33 73
-15 9 8 20 15 25 15 5 0 17 11 26 25 22 34 52 32 62 -2 15 -52 16 -68 15 -228
0 -204 -8 -287 -26 -301 -8 -6 -15 -16 -15 -22 0 -6 -9 -16 -19 -22 -12 -6
-21 -23 -23 -42 -2 -25 -9 -33 -30 -39 -21 -5 -28 -4 -28 7 0 8 -4 14 -10 14
-5 0 -10 -5 -10 -11 0 -6 -6 -9 -12 -6 -7 2 -13 10 -13 18 0 8 -10 14 -22 13
-13 0 -25 8 -32 22 -8 19 -7 22 4 17 8 -3 15 0 15 6 0 6 -5 11 -11 11 -6 0 -4
9 5 22 20 27 3 67 -20 47 -8 -6 -14 -17 -14 -24 0 -18 -45 -45 -74 -45 -14 0
-28 -4 -31 -10 -3 -5 -15 -10 -26 -10 -11 0 -23 -10 -29 -24 -8 -22 -11 -23
-60 -13 -37 7 -61 7 -88 -2 -21 -7 -53 -11 -72 -9 l-35 3 25 15 c14 8 61 17
105 20 l80 5 -26 18 c-33 22 -122 34 -152 19 -91 -43 -113 -38 -147 33 -19 39
-24 43 -41 34 -19 -10 -69 -81 -69 -98 0 -11 80 -20 86 -9 8 13 24 9 24 -5 0
-18 38 -39 61 -32 24 8 40 -2 32 -20 -6 -18 -34 -20 -50 -4 -17 17 -37 1 -22
-17 15 -18 5 -21 -94 -27 -55 -4 -85 -11 -98 -23 -27 -24 -32 -13 -14 31 22
50 10 57 -26 17 -20 -23 -28 -40 -24 -53 4 -12 -2 -27 -17 -42 -13 -13 -29
-35 -37 -50 -15 -29 -26 -34 -36 -17 -4 6 -11 8 -16 4 -5 -3 -7 -9 -5 -12 6
-9 -33 -7 -57 3 -22 9 -34 -2 -39 -35 -3 -22 -9 -25 -45 -28 -36 -3 -43 -7
-54 -35 -7 -18 -17 -35 -23 -39 -16 -10 -36 11 -36 38 0 26 -11 30 -40 14 -30
-16 -73 -2 -67 21 4 15 0 19 -24 19 -31 0 -36 9 -17 28 10 10 10 15 -2 22 -9
6 -17 5 -21 -2 -5 -8 -12 -6 -24 5 -9 10 -24 17 -33 17 -15 1 -15 2 1 14 15
12 16 20 9 48 -5 18 -14 32 -20 31 -11 -3 -25 27 -21 43 3 14 -29 80 -45 94
-9 7 -16 19 -16 27 0 7 -7 16 -15 19 -8 4 -12 11 -8 17 3 5 1 7 -4 4 -6 -4
-16 0 -23 8 -7 8 -19 15 -27 15 -16 0 -52 38 -53 56 0 5 -14 20 -30 32 -24 18
-30 30 -30 59 0 29 -3 34 -12 25 -7 -7 -25 -12 -41 -12 -29 0 -29 -1 -23 -37
3 -21 9 -64 13 -96 l6 -59 -29 3 c-21 2 -38 -6 -61 -28 -18 -17 -33 -36 -33
-41 0 -6 -6 -13 -13 -16 -6 -4 -1 -4 13 -1 14 2 39 5 57 5 23 0 33 6 38 20 8
26 31 26 38 0 3 -11 12 -20 20 -20 12 0 15 -12 14 -55 -2 -67 -18 -72 -48 -13
-22 42 -22 42 -31 18 -5 -14 -19 -35 -30 -47 -21 -22 -21 -23 -2 -23 11 0 29
-15 42 -35 27 -42 39 -44 44 -7 4 25 5 25 13 7 5 -11 13 -23 19 -27 8 -6 8
-10 -1 -15 -6 -5 -19 -34 -28 -65 -9 -32 -20 -58 -24 -58 -5 0 -2 -30 5 -67 8
-37 14 -74 13 -83 -1 -8 1 -24 5 -35 21 -54 26 -72 29 -92 2 -12 11 -31 20
-41 9 -10 17 -21 17 -25 0 -3 11 -17 25 -31 14 -14 25 -37 25 -51 0 -16 13
-39 33 -59 17 -18 42 -45 54 -59 13 -15 31 -27 40 -27 20 -1 63 -33 63 -48 0
-5 29 -13 65 -17 47 -5 66 -11 70 -23 5 -19 64 -62 83 -62 7 0 12 -7 12 -15 0
-8 9 -19 20 -25 11 -6 18 -15 14 -21 -3 -5 6 -19 19 -30 14 -10 28 -33 32 -49
4 -17 15 -35 26 -41 11 -5 24 -21 29 -34 9 -23 12 -24 81 -18 49 4 73 2 78 -6
10 -15 220 -34 236 -21 16 13 25 2 25 -29 0 -53 14 -57 68 -18 27 20 71 60 97
89 62 69 101 87 180 87 66 -1 152 28 187 63 30 30 45 21 63 -33 29 -86 23
-115 -143 -709 -22 -80 -43 -162 -47 -182 -11 -59 -24 -62 -90 -22 -53 32
-101 69 -319 247 -91 75 -164 111 -184 91 -7 -8 -24 -15 -38 -15 -13 -1 -28
-3 -34 -4 -5 -1 -15 -3 -22 -4 -8 -1 -9 -4 -2 -11 6 -6 23 -6 47 2 29 9 42 9
62 -2 13 -7 22 -17 19 -22 -3 -4 0 -8 5 -8 6 0 11 -7 11 -15 0 -18 -57 -29
-113 -22 -42 6 -42 6 -10 -6 17 -7 35 -15 39 -19 4 -5 17 -8 29 -8 12 0 42 -7
68 -16 46 -15 60 -36 34 -48 -6 -3 2 -4 18 -1 22 4 26 3 15 -5 -8 -5 -37 -10
-64 -10 -58 0 -77 -18 -69 -68 5 -28 2 -34 -16 -39 -17 -4 -21 -11 -17 -26 4
-18 1 -19 -45 -15 -45 5 -48 4 -36 -11 38 -46 46 -104 22 -151 -13 -24 -22
-30 -49 -30 -33 0 -138 29 -175 49 -16 9 -19 6 -24 -22 -2 -17 2 -44 9 -59 14
-27 5 -46 -16 -33 -5 3 -23 -7 -40 -23 -17 -16 -51 -35 -76 -42 -32 -9 -42
-16 -35 -23 15 -15 14 -59 -2 -82 -8 -11 -19 -36 -26 -55 -15 -43 -52 -100
-67 -100 -6 0 -19 -19 -30 -42 -10 -23 -40 -64 -67 -92 l-48 -50 35 -18 c19
-10 47 -34 62 -53 28 -37 44 -44 44 -20 0 18 41 61 87 94 22 15 49 55 84 122
28 54 55 99 59 99 11 0 -33 143 -54 175 -15 23 -15 25 6 36 30 16 117 39 148
39 14 0 36 -9 50 -20 31 -24 42 -25 38 -2 -2 11 3 17 17 17 14 0 20 -7 20 -23
0 -22 28 -52 47 -52 4 0 8 13 8 29 0 16 4 31 10 33 5 2 17 29 25 60 15 61 98
185 201 303 28 33 54 69 56 80 5 28 53 23 87 -8 24 -22 205 -128 244 -143 29
-11 29 -45 1 -134 -32 -105 -113 -310 -159 -408 -19 -40 -35 -75 -35 -77 0 -3
-72 -151 -159 -330 -93 -189 -165 -325 -173 -325 -11 0 -13 38 -11 208 2 159
0 202 -8 185 -14 -27 -99 -58 -130 -48 -19 7 -21 5 -14 -16 4 -13 7 -52 6 -86
-2 -59 -1 -63 21 -64 17 -1 19 -2 5 -6 -12 -3 -16 -10 -12 -24 4 -12 1 -21 -9
-25 -19 -7 -21 -31 -4 -36 8 -3 4 -9 -10 -17 -28 -15 -68 -4 -134 38 l-46 29
-6 -40 c-7 -42 -46 -117 -71 -138 -18 -15 -11 -30 13 -30 22 0 90 -36 119 -63
13 -11 24 -19 26 -16 2 2 11 29 20 60 9 31 26 64 37 74 19 17 21 17 40 0 21
-19 27 -45 10 -45 -12 0 -13 -20 -1 -38 6 -11 14 -8 34 11 15 13 33 37 42 53
14 26 15 27 15 7 0 -13 5 -23 10 -23 6 0 10 7 10 15 0 8 5 15 10 15 15 0 12
-12 -10 -40 -11 -14 -20 -30 -20 -36 0 -6 -7 -17 -15 -24 -8 -7 -15 -16 -15
-21 0 -5 642 -9 1490 -9 l1490 0 0 3200 0 3200 -3200 0 -3200 0 0 -3200z
m2737 2484 c-3 -3 -12 -4 -19 -1 -8 3 -5 6 6 6 11 1 17 -2 13 -5z m-174 -211
c-7 -2 -19 -2 -25 0 -7 3 -2 5 12 5 14 0 19 -2 13 -5z m-23 -313 c0 -5 -5 -10
-11 -10 -5 0 -7 5 -4 10 3 6 8 10 11 10 2 0 4 -4 4 -10z m40 -64 c0 -2 -11 -6
-25 -8 -14 -3 -25 -1 -25 3 0 5 11 9 25 9 14 0 25 -2 25 -4z m36 -31 c-21 -16
-32 -13 -21 4 3 6 14 11 23 11 15 -1 15 -2 -2 -15z m-298 -17 c-3 -15 -24 -38
-34 -38 -3 0 -1 7 7 16 10 13 10 17 -2 25 -11 7 -9 9 9 9 12 0 21 -5 20 -12z
m257 -70 c-10 -47 -16 -53 -32 -33 -17 24 -16 30 3 49 25 26 36 19 29 -16z
m-35 -197 c0 -18 -18 -41 -32 -41 -12 0 -9 45 4 58 14 14 28 6 28 -17z m-1
-87 c-14 -18 -24 -11 -15 11 3 9 11 13 16 10 8 -5 7 -11 -1 -21z m-219 -134
c0 -5 -8 -10 -17 -10 -15 0 -16 2 -3 10 19 12 20 12 20 0z m105 -70 c3 -5 1
-10 -4 -10 -6 0 -11 5 -11 10 0 6 2 10 4 10 3 0 8 -4 11 -10z m2029 -156 c12
-5 13 -9 3 -18 -20 -21 -70 -26 -91 -10 -19 13 -19 14 7 14 15 0 27 5 27 10 0
11 30 13 54 4z m-1999 -244 c3 -5 -3 -10 -15 -10 -12 0 -18 5 -15 10 3 6 10
10 15 10 5 0 12 -4 15 -10z m18 -27 c-7 -2 -19 -2 -25 0 -7 3 -2 5 12 5 14 0
19 -2 13 -5z m159 -348 c0 -5 -5 -11 -11 -13 -6 -2 -11 4 -11 13 0 9 5 15 11
13 6 -2 11 -8 11 -13z m968 -385 c0 -5 -4 -10 -10 -10 -5 0 -10 5 -10 10 0 6
5 10 10 10 6 0 10 -4 10 -10z m257 -53 c-4 -13 -27 -19 -104 -24 -40 -3 -63
-1 -63 6 0 16 18 23 74 30 60 8 98 3 93 -12z m-312 -57 c-3 -5 -10 -10 -16
-10 -5 0 -9 5 -9 10 0 6 7 10 16 10 8 0 12 -4 9 -10z m735 0 c0 -6 -10 -15
-22 -20 -23 -9 -23 -9 -2 -9 18 -1 21 -7 20 -33 -1 -17 -7 -33 -14 -36 -6 -2
-12 -15 -12 -29 l0 -26 -23 24 c-13 13 -36 31 -53 39 -33 18 -38 43 -9 48 11
2 30 13 42 24 12 11 26 17 32 13 6 -3 11 -1 11 4 0 6 7 11 15 11 8 0 15 -5 15
-10z m-393 -9 c27 -6 84 -11 126 -12 64 -2 75 -4 66 -15 -6 -8 -21 -14 -33
-14 -12 0 -28 -6 -35 -12 -11 -10 -13 -10 -7 0 8 14 -10 17 -19 3 -3 -6 -26
-13 -50 -17 -35 -5 -43 -9 -35 -19 8 -10 2 -14 -27 -20 -21 -4 -32 -10 -25
-12 22 -8 13 -21 -24 -33 -19 -7 -33 -15 -30 -18 3 -3 2 -10 -3 -16 -19 -24 6
-54 51 -61 61 -10 77 -21 71 -46 -3 -11 -12 -23 -20 -26 -10 -4 -12 -14 -9
-29 8 -31 -7 -31 -28 1 -14 22 -15 25 -1 25 8 0 15 4 15 9 0 14 -67 18 -127 9
-41 -6 -60 -5 -83 7 -16 8 -36 15 -45 15 -8 0 -15 5 -15 10 0 6 -13 10 -29 10
-17 0 -33 5 -36 10 -3 6 -15 10 -25 10 -13 0 -17 5 -14 15 4 9 -1 18 -12 22
-11 4 -25 13 -33 21 -12 11 -10 14 7 19 26 6 37 36 23 62 -20 37 -13 48 37 56
26 4 53 11 59 17 14 11 131 23 211 21 29 -1 50 3 46 8 -6 11 -8 11 53 0z
m-867 -56 c-7 -8 -16 -12 -21 -9 -13 8 -1 24 18 24 13 0 13 -3 3 -15z m1030
-65 c0 -5 -2 -10 -4 -10 -3 0 -8 5 -11 10 -3 6 -1 10 4 10 6 0 11 -4 11 -10z
m-690 -30 c0 -5 -4 -10 -9 -10 -6 0 -13 5 -16 10 -3 6 1 10 9 10 9 0 16 -4 16
-10z m857 -65 c-4 -8 -14 -11 -26 -8 -20 5 -20 5 2 23 22 19 34 11 24 -15z
m-740 -21 c-3 -3 -12 -4 -19 -1 -8 3 -5 6 6 6 11 1 17 -2 13 -5z m516 -61 c9
-8 -12 -33 -28 -33 -8 0 -11 8 -8 20 5 20 23 26 36 13z m67 -13 c0 -5 -4 -10
-10 -10 -5 0 -10 5 -10 10 0 6 5 10 10 10 6 0 10 -4 10 -10z m-422 -1213 c17
-36 10 -44 -25 -27 -23 11 -25 14 -10 17 26 7 20 23 -9 23 -15 0 -23 4 -19 11
12 19 50 5 63 -24z m82 -59 c-25 -9 -36 -5 -26 10 3 6 16 8 28 4 l22 -5 -24
-9z m-346 -433 c3 -8 0 -15 -7 -15 -8 0 -8 -3 2 -9 19 -12 0 -20 -26 -10 -27
10 -29 24 -5 38 23 14 29 13 36 -4z m-320 -387 c-9 -56 -21 -78 -42 -78 -22 0
-62 36 -62 55 0 17 53 48 108 64 1 1 -1 -18 -4 -41z m323 -440 c-3 -7 -5 -2
-5 12 0 14 2 19 5 13 2 -7 2 -19 0 -25z m116 -141 c-5 -43 -8 -47 -29 -43 -17
3 -24 0 -24 -10 0 -8 -4 -13 -9 -9 -6 3 -4 21 4 45 12 35 12 40 0 40 -25 0
-17 17 17 39 31 19 33 19 39 2 4 -9 5 -38 2 -64z"/>
<path d="M3580 4360 c0 -5 6 -10 14 -10 8 0 18 5 21 10 3 6 -3 10 -14 10 -12
0 -21 -4 -21 -10z"/>
<path d="M3487 4350 c-21 -4 -49 -5 -63 -2 -13 2 -36 0 -52 -6 -15 -5 -48 -17
-74 -27 -46 -16 -64 -35 -33 -35 8 0 15 -7 15 -15 0 -8 9 -15 20 -15 11 0 20
-4 20 -8 0 -5 55 -7 122 -6 116 3 148 -3 148 -27 0 -5 -8 -9 -18 -9 -10 0 -22
-4 -27 -9 -6 -5 -57 -20 -115 -34 -177 -44 -260 -79 -260 -109 0 -12 45 -10
75 4 19 9 28 9 37 0 18 -18 46 -15 44 6 -1 12 8 18 33 20 26 3 43 -4 74 -29
43 -35 80 -40 133 -18 16 7 39 11 51 10 25 -3 93 27 93 39 0 5 -7 15 -15 24
-19 19 -19 26 1 26 19 0 104 -51 104 -62 0 -16 29 -7 32 9 2 12 13 17 32 18
l30 0 -3 65 c-3 78 -14 100 -47 100 -19 0 -25 4 -20 15 12 32 -100 73 -181 67
-34 -2 -75 0 -90 5 -15 5 -45 6 -66 3z m-113 -45 c17 -13 15 -14 -18 -21 -44
-8 -58 2 -32 22 24 17 26 17 50 -1z m290 -236 c-3 -5 -21 -9 -40 -9 -19 0 -34
4 -34 9 0 4 18 8 40 8 22 0 37 -4 34 -8z"/>
<path d="M2022 4207 c-27 -28 -39 -81 -22 -92 8 -5 16 -1 22 9 5 9 18 16 28
16 11 0 20 4 20 9 0 5 14 14 30 20 37 12 39 38 4 51 -39 15 -59 12 -82 -13z"/>
<path d="M2240 4117 c0 -17 32 -47 49 -47 17 0 -4 37 -29 50 -15 8 -20 8 -20
-3z"/>
<path d="M4241 4094 c0 -11 3 -14 6 -6 3 7 2 16 -1 19 -3 4 -6 -2 -5 -13z"/>
<path d="M4310 4101 c0 -10 19 -25 25 -20 1 2 -3 10 -11 17 -8 7 -14 8 -14 3z"/>
<path d="M4278 4083 c7 -3 16 -2 19 1 4 3 -2 6 -13 5 -11 0 -14 -3 -6 -6z"/>
<path d="M3777 4033 c-4 -3 -7 -11 -7 -17 0 -6 5 -5 12 2 6 6 9 14 7 17 -3 3
-9 2 -12 -2z"/>
<path d="M2296 3979 c-48 -25 -69 -46 -88 -85 -14 -29 -14 -33 3 -48 26 -22
46 -20 59 4 14 26 45 25 64 -2 l16 -22 30 34 c25 28 29 40 24 65 -7 32 -40 75
-58 75 -6 0 -29 -9 -50 -21z"/>
<path d="M2031 3954 c0 -11 3 -14 6 -6 3 7 2 16 -1 19 -3 4 -6 -2 -5 -13z"/>
<path d="M2565 3860 c-8 -13 4 -32 16 -25 12 8 12 35 0 35 -6 0 -13 -4 -16
-10z"/>
<path d="M2182 3829 c2 -6 8 -10 13 -10 5 0 11 4 13 10 2 6 -4 11 -13 11 -9 0
-15 -5 -13 -11z"/>
<path d="M2377 3768 c-22 -47 -21 -69 3 -75 15 -4 19 -13 17 -37 -2 -27 1 -31
26 -34 26 -3 27 -2 27 42 0 25 -5 48 -11 52 -6 3 -19 25 -28 47 l-17 40 -17
-35z"/>
<path d="M2678 3771 c-11 -13 -13 -23 -7 -27 15 -9 32 10 27 30 -3 15 -5 14
-20 -3z"/>
<path d="M3605 3509 c-4 -6 -4 -13 -1 -16 8 -8 36 5 36 17 0 13 -27 13 -35 -1z"/>
<path d="M3723 3443 c9 -2 23 -2 30 0 6 3 -1 5 -18 5 -16 0 -22 -2 -12 -5z"/>
<path d="M2476 2615 c-13 -34 -6 -107 15 -148 35 -69 108 -167 183 -244 38
-40 73 -73 78 -73 16 0 8 20 -17 42 -14 12 -25 26 -25 32 0 6 -11 21 -24 34
-13 12 -42 59 -65 105 -22 45 -58 109 -81 142 -22 33 -40 69 -40 80 0 11 -4
26 -9 33 -7 11 -10 10 -15 -3z"/>
<path d="M2633 1825 c-86 -90 -101 -125 -52 -125 10 0 19 -5 19 -12 0 -6 3 -9
6 -5 4 3 19 0 35 -9 28 -14 29 -14 29 11 0 15 9 30 23 39 31 20 106 40 142 37
29 -1 29 -1 11 14 -11 8 -26 15 -33 15 -27 0 -72 30 -90 60 -9 16 -22 30 -28
30 -5 0 -34 -25 -62 -55z"/>
<path d="M2890 1792 c0 -12 19 -26 26 -19 2 2 -2 10 -11 17 -9 8 -15 8 -15 2z"/>
<path d="M2886 1728 c9 -18 18 -34 19 -36 2 -2 23 5 47 16 23 11 60 23 82 26
21 4 36 9 35 10 -2 2 -48 6 -102 10 l-98 6 17 -32z"/>
<path d="M3180 1675 c-6 -15 -10 -30 -10 -34 0 -4 -13 -21 -30 -37 -16 -16
-30 -32 -30 -35 0 -4 24 -10 53 -13 28 -4 72 -16 96 -27 55 -24 61 -24 61 1 0
12 18 38 40 60 22 22 40 42 40 45 0 3 -13 5 -28 5 -36 0 -130 27 -160 46 -21
14 -23 13 -32 -11z"/>
<path d="M2686 1634 c-7 -18 7 -48 32 -66 10 -7 31 -30 46 -50 31 -41 51 -42
36 -2 -6 14 -10 39 -10 55 0 17 -5 29 -13 29 -7 0 -29 11 -49 25 -31 21 -37
22 -42 9z"/>
<path d="M2977 1468 c-15 -6 -24 -14 -21 -20 4 -7 2 -8 -5 -4 -6 4 -23 1 -36
-8 -13 -9 -31 -13 -39 -10 -24 9 -19 -10 14 -59 16 -24 35 -57 41 -73 l12 -29
7 35 c3 23 11 34 19 32 22 -5 72 19 64 31 -4 6 4 8 20 5 l26 -5 -29 37 c-16
21 -33 46 -37 57 -7 17 -12 18 -36 11z"/>
<path d="M3248 1416 c-24 -17 -23 -25 5 -35 31 -12 50 4 34 30 -14 22 -16 23
-39 5z"/>
<path d="M3404 1052 c-28 -3 -32 -8 -37 -40 -4 -20 -3 -39 1 -42 8 -5 11 -15
22 -70 5 -20 8 -26 10 -15 l1 20 9 -20 c5 -11 11 -28 14 -38 6 -17 7 -17 31 0
29 21 32 61 10 142 -17 64 -20 67 -61 63z"/>
<path d="M3216 808 c-3 -13 -6 -33 -6 -44 0 -12 -13 -46 -29 -76 l-28 -55 43
-11 c24 -6 58 -25 77 -42 19 -16 37 -30 40 -30 3 0 7 15 10 33 12 72 32 123
64 158 l24 26 -52 6 c-30 4 -68 17 -90 32 -47 30 -45 30 -53 3z"/>
<path d="M3482 733 c-17 -38 -13 -76 6 -64 9 5 12 24 10 52 l-3 44 -13 -32z"/>
<path d="M3455 721 c-3 -6 -12 -29 -20 -51 -13 -36 -13 -41 -1 -37 8 3 17 1
19 -6 2 -7 6 14 8 46 4 60 4 63 -6 48z"/>
<path d="M2652 584 c-33 -15 -38 -22 -77 -132 l-23 -64 26 7 c15 4 45 9 67 12
l40 5 0 94 c0 52 0 94 0 93 0 0 -15 -7 -33 -15z"/>
<path d="M3033 529 c-5 -5 -36 -13 -67 -16 -60 -6 -63 -10 -42 -51 7 -15 16
-47 20 -71 9 -59 12 -62 44 -45 15 7 39 14 55 14 15 0 27 6 27 13 0 9 3 9 9
-1 5 -8 15 -12 23 -10 13 2 11 14 -11 70 -22 54 -29 63 -37 50 -8 -12 -9 -7
-6 21 4 39 2 43 -15 26z"/>
<path d="M3227 454 c-3 -3 -2 -17 2 -32 5 -18 15 -28 32 -30 19 -3 22 -1 12 9
-7 7 -13 21 -13 30 0 16 -23 32 -33 23z"/>
<path d="M2726 274 c-8 -25 -31 -66 -50 -89 l-35 -42 39 -12 c22 -6 53 -23 70
-37 29 -25 30 -25 30 -4 0 22 57 133 71 138 15 6 10 22 -7 22 -17 0 -72 34
-90 57 -10 11 -15 5 -28 -33z"/>
<path d="M2980 14 l-25 -14 28 0 c17 0 27 5 27 15 0 8 -1 15 -2 14 -2 -1 -14
-7 -28 -15z"/>
</g>
</svg>
