<?xml version="1.0" standalone="no"?>
<!DOCTYPE svg PUBLIC "-//W3C//DTD SVG 20010904//EN"
 "http://www.w3.org/TR/2001/REC-SVG-20010904/DTD/svg10.dtd">
<svg version="1.0" xmlns="http://www.w3.org/2000/svg"
 width="528.000000pt" height="560.000000pt" viewBox="0 0 528.000000 560.000000"
 preserveAspectRatio="xMidYMid meet">
<metadata>
Created by potrace 1.16, written by Peter Selinger 2001-2019
</metadata>
<g transform="translate(0.000000,560.000000) scale(0.100000,-0.100000)"
fill="#000000" stroke="none">
<path d="M0 2800 l0 -2800 1871 0 1870 0 46 35 c26 20 57 35 73 35 16 0 47
-15 73 -35 l46 -35 650 0 651 0 0 2800 0 2800 -2640 0 -2640 0 0 -2800z m2905
1378 c105 -16 250 -67 345 -123 96 -57 231 -180 295 -270 64 -89 154 -250 171
-303 8 -26 18 -122 23 -214 5 -92 12 -171 15 -176 3 -5 -4 -45 -15 -88 -16
-63 -22 -130 -29 -324 -13 -356 -47 -488 -150 -591 -60 -60 -196 -129 -256
-129 -52 0 -58 8 -104 127 -38 99 -85 147 -188 189 -59 24 -80 27 -187 28 -94
1 -127 -3 -152 -16 -29 -14 -36 -15 -61 -2 -77 38 -274 25 -376 -25 -83 -41
-120 -82 -159 -180 -46 -113 -57 -125 -115 -119 -92 9 -233 98 -289 182 -69
101 -91 217 -103 541 -5 132 -14 258 -20 280 -6 22 -13 96 -16 165 -9 224 32
355 188 592 147 224 250 314 442 388 198 76 503 104 741 68z m-1399 -1480 c3
-201 3 -371 0 -377 -10 -16 -74 13 -115 52 -65 62 -71 88 -71 315 0 224 5 250
63 311 27 28 106 75 114 67 1 -1 5 -167 9 -368z m2383 309 c65 -62 71 -88 71
-315 0 -224 -5 -250 -63 -310 -37 -39 -77 -62 -108 -62 l-22 0 7 371 c3 204 6
373 6 375 0 12 79 -31 109 -59z m-1212 -859 c15 -6 91 -14 169 -17 134 -6 142
-7 177 -34 22 -16 49 -53 69 -94 59 -120 38 -217 -70 -335 -61 -65 -91 -84
-148 -94 -34 -5 -45 -1 -79 26 -62 50 -95 63 -155 63 -59 0 -93 -13 -154 -62
-21 -17 -46 -31 -55 -31 -50 0 -99 26 -158 83 -117 112 -146 221 -90 342 54
116 88 135 249 136 64 0 130 6 153 14 52 17 58 17 92 3z m-397 -801 c256 -75
479 -75 743 2 l97 28 0 -163 0 -163 73 -3 72 -3 11 -75 c14 -91 7 -110 -74
-188 -139 -133 -418 -211 -654 -182 -131 15 -200 35 -303 85 -102 49 -189 124
-225 195 -18 35 -21 53 -16 92 11 78 10 78 87 78 l69 0 0 166 c0 154 1 166 18
161 9 -2 55 -16 102 -30z m-1040 -560 c0 -2 -10 -12 -22 -23 l-23 -19 19 23
c18 21 26 27 26 19z m2831 -24 c13 -16 12 -17 -3 -4 -17 13 -22 21 -14 21 2 0
10 -8 17 -17z m-2881 -16 c0 -2 -10 -12 -22 -23 l-23 -19 19 23 c18 21 26 27
26 19z m-130 -122 c-41 -41 -77 -75 -79 -75 -3 0 28 34 69 75 41 41 77 75 79
75 3 0 -28 -34 -69 -75z m3160 10 c30 -30 52 -55 49 -55 -2 0 -29 25 -59 55
-30 30 -52 55 -49 55 2 0 29 -25 59 -55z m101 -112 c13 -16 12 -17 -3 -4 -10
7 -18 15 -18 17 0 8 8 3 21 -13z m-3351 4 c0 -2 -10 -12 -22 -23 l-23 -19 19
23 c18 21 26 27 26 19z m-40 -51 c0 -2 -8 -10 -17 -17 -16 -13 -17 -12 -4 4
13 16 21 21 21 13z m-80 -116 c-6 -11 -13 -20 -16 -20 -2 0 0 9 6 20 6 11 13
20 16 20 2 0 0 -9 -6 -20z"/>
<path d="M2055 3254 c-96 -21 -185 -64 -245 -120 -50 -47 -60 -70 -38 -92 21
-21 43 -13 82 27 83 85 274 138 407 113 68 -12 99 -4 99 27 0 27 -18 38 -84
50 -77 14 -135 13 -221 -5z"/>
<path d="M2995 3258 c-56 -11 -75 -23 -75 -49 0 -31 31 -39 99 -27 132 25 330
-31 410 -116 36 -37 59 -44 79 -24 22 22 12 45 -38 92 -111 104 -310 156 -475
124z"/>
<path d="M2075 2901 c-45 -20 -70 -60 -70 -112 0 -42 5 -53 33 -81 28 -28 39
-33 82 -33 43 0 54 5 82 33 28 28 33 39 33 82 0 42 -5 54 -31 81 -33 33 -92
46 -129 30z"/>
<path d="M3115 2901 c-45 -20 -70 -60 -70 -112 0 -42 5 -53 33 -81 28 -28 39
-33 82 -33 43 0 54 5 82 33 28 28 33 39 33 82 0 42 -5 54 -31 81 -33 33 -92
46 -129 30z"/>
<path d="M2360 2027 c0 -80 72 -185 156 -227 75 -37 156 -39 233 -4 96 42 171
144 171 231 l0 23 -280 0 -280 0 0 -23z"/>
</g>
</svg>
