<svg version="1" xmlns="http://www.w3.org/2000/svg" width="853.333" height="853.333" viewBox="0 0 640.000000 640.000000"><path d="M299.9.5c-.2.1-4.3.6-9.1.9-4.8.3-9.3.8-10 1-.7.3-3.5.7-6.3 1-4.9.6-18.7 3-23.2 4.1-1.3.3-3.1.7-4 .9-14.5 3.3-35.3 10-48.8 15.6-1.6.7-3.4 1.4-4 1.5-2.9.7-27.7 13.4-37 19-6 3.6-11.2 6.5-11.7 6.5-.4 0-.8.4-.8.8 0 .5-1 1.4-2.2 1.9-1.3.6-3.2 1.8-4.3 2.7-1.1.8-6.5 4.9-12 9-11.8 8.8-17.7 13.8-26.4 22.3-3.5 3.5-6.8 6.3-7.2 6.3-.5 0-.9.3-.9.7 0 .5-2.8 3.7-6.1 7.3-10.4 11.2-11.4 12.4-13.9 16-1.4 1.9-3.3 4.1-4.2 4.8-1 .7-1.8 1.8-1.8 2.3 0 .5-.9 2-2.1 3.2-3.2 3.4-19.9 28.9-19.9 30.4 0 .7-.3 1.3-.7 1.3-.5 0-1.3 1-1.9 2.3-.6 1.2-3.1 6.2-5.7 11.2-13.1 25.6-23.7 54.7-28.3 77.8-.2 1-.5 2.6-.8 3.5-.3.9-.7 3.5-1 5.7-.4 2.2-1 6.2-1.6 9-4.1 21.9-4.8 67-1.5 90.5.2 1.4.6 4.5 1 7 3.3 23.1 12.4 56.2 20.6 74.7 1.1 2.3 1.9 4.5 1.9 4.8 0 1.3 13.7 28.4 16.7 33 1.8 2.7 3.3 5.3 3.3 5.6 0 2.1 19.5 29.5 30 42 5.8 6.9 28.8 30 36.3 36.4 25 21.3 54 38.9 87.2 53 21.7 9.2 56.2 18.2 80.8 21.1 2.9.3 7 .8 9.2 1.1 7.5.9 50 1 57.5.2 4.1-.5 10-1.1 13-1.4 3-.3 6.2-.7 7-1 .8-.2 3.5-.7 6-1 6.4-.9 21.5-4.1 28-6 3-.8 6.2-1.7 7.1-1.9 8-2 29.9-9.8 39.4-14 14.5-6.4 41.6-21 42.3-22.8.2-.5.8-.8 1.3-.8s4.3-2.4 8.5-5.3c4.2-2.8 8.6-5.9 9.8-6.7 11.8-8.1 52.6-45.8 52.6-48.7 0-.5 1-1.8 2.3-3 3.2-2.7 18.3-23 24.6-32.8 18.3-28.9 32-59.7 40.1-90.5 2.9-10.9 6.9-30.6 7.6-37.5.4-3.3.8-6.3 1-6.6 2.5-4.3 2.5-63.6 0-77.9-.3-1.4-.7-4.5-1-7-3-22.8-12.1-56.3-20.7-75.7-1.1-2.3-1.9-4.5-1.9-4.8 0-1.3-13.7-28.4-16.7-33-1.8-2.7-3.3-5.3-3.3-5.6 0-2.3-20.5-30.8-30.5-42.5-4.6-5.4-20.2-22-23.3-24.7-.7-.7-3-2.8-5.1-4.7-4.8-4.4-12.1-10.5-18-15-2.5-1.9-4.7-3.8-4.9-4.3-.2-.4-1-.7-1.7-.7s-1.5-.4-1.7-.8c-.4-1.2-14.3-10.6-24.8-16.9-30.9-18.5-67-32.4-102-39.2-5.1-1-6.9-1.3-14.7-2.5-1.6-.3-5.3-.8-8.3-1.1-3-.4-6.6-.9-8-1.1-3.1-.6-50.7-1.4-51.1-.9z"/></svg>